# xmcd CD database file
#
# Track frame offsets:
#	150
#	3507
#	21810
#	36270
#	56422
#	88957
#	116697
#	131430
#	157480
#	181177
#	196512
#	214950
#	231900
#	249165
#	263477
#	279520
#
# Disc length: 3809 seconds
#
# Revision: 0
# Processed by: cddbd v1.4PL0 Copyright (c) Steve Scherf et al.
# Submitted via: CDex 1.50beta10
#
DISCID=d90edf10
DTITLE=THE BENNY GOODMAN ORCHESTRA - Bangkok 1956
DYEAR=1900
DGENRE=Jazz
TTITLE0=Let's dance - Stone,Bonime,Baldridge
TTITLE1=Don't be that way - Goodman,Sampson,Parish
TTITLE2=King Porter Stomp - Morton
TTITLE3=Trigger fantasy - Manning
TTITLE4=Roll'em - Williams
TTITLE5=One o'clock jump - Basie
TTITLE6=Down south camp meeting - Henderson
TTITLE7=Yarm Yen/In the evening - H.M. King of Thailand Bhumipol Aduljadet
TTITLE8=Sugar foot stomp - Oliver,Armstrong
TTITLE9=Big John special - Henderson
TTITLE10=Flying home - Goodman,Hampton,DeLange
TTITLE11=The world is waiting for the sunrise - Lockhart,Seitz
TTITLE12=Oh, lady be good - Gershwin
TTITLE13=Sai fon/Falling rain - H.M.
TTITLE14=Stompin' at the Savoy - Goosman,Webb,Sampson,Razaf
TTITLE15=Thai Royal Anthem
EXTD=
EXTT0=
EXTT1=
EXTT2=
EXTT3=
EXTT4=
EXTT5=
EXTT6=
EXTT7=
EXTT8=
EXTT9=
EXTT10=
EXTT11=
EXTT12=
EXTT13=
EXTT14=
EXTT15=
PLAYORDER=
